<svg version="1.1" xmlns="http://www.w3.org/2000/svg" viewBox="0 0 376.7 288.5" xml:space="preserve">
<style>.s{fill:#00305f}</style>
<path class="s" d="M315.1,213.1h-22.8v48.3H78V213H54.8v56.5c0,15.2,11.6,15.2,11.6,15.2h237.2C316,284.7,315,270,315,270L315.1,213.1z"/>
<path class="s" d="M364.7,124.3l-49.4-32V33c0-3.1-1.2-6-3.3-8.2c-2.1-2.2-5.1-3.5-8.1-3.6h-47.4c-3.1-0.1-6.2,1-8.5,3.1c-2.2,2.2-3.5,5.3-3.4,8.5v11.3L191.3,2.9c-4.1-2.8-9.5-2.8-13.6,0L4.6,118.2c-5.1,3.9-6.1,11.3-2.1,16.4c3.6,4.7,10.2,6,15.3,2.9L184.5,26.4l67.1,50.3c5.5,2.9,12.3,0.8,15.2-4.7c0.9-1.6,1.3-3.5,1.3-5.3V44.1h24v46.6c0,3.1,0.5,14.7,8.9,20.2l50.4,32.7c2.1,1,4.3,1.7,6.7,2.1c3.8,0,7.4-1.9,9.6-5.1C371.3,135.3,370,128,364.7,124.3"/>
<path class="s" d="M315.1,199.1v-51.6c0.1-3.5-0.4-7-1.6-10.3c-3.8-7.2-11.5-11.5-19.6-10.9c-4.9,0-9.7,1.1-14.1,3.1c-2.2,1-4.3,2.2-6.2,3.5c-0.5-2.3-1.4-4.4-2.7-6.3l-0.8-1.2l-20.5,5.4l0.7,1.8c1.7,4.9,2.6,10.1,2.5,15.3V199h23.1v-49c3.3-2.9,7.3-4.6,11.6-5.1c2.4,0,3.1,0.5,3.6,1.3c0.9,2.2,1.3,4.6,1.1,6.9v46.1L315.1,199.1L315.1,199.1z"/>
<path class="s" d="M164.7,105.1v-1.6l-22,4.6l0.2,1.4c0.6,5.4,0.8,10.8,0.6,16.1v48.7c0,9.3,0.2,11.8,1.8,15.5c2.5,6.4,9.7,10,18,10c4,0,8-0.6,11.7-1.9l1.3-0.4l-3.9-17.9l-1.7,0.4h-0.9H169c-0.9,0-1.8-0.3-2.5-1c-0.8-1.3-1-1.7-1-13.1V119C166,114.3,165.7,109.6,164.7,105.1"/>
<polygon class="s" points="240.2,126.3 243.2,108.5 185.2,108.5 185.2,198.9 244.1,198.9 244.1,180.3 208.2,180.3 208.2,160.7 235.1,160.7 235.1,142.8 208,142.8 208,126.3"/>
<path class="s" d="M97.6,132l8.1,29.7H89.1L97.6,132z M84.2,181.2h25.6l6.7,17.3h23.4l-30.5-89.7H86.8l-0.3,1l-31.9,88.8h23L84.2,181.2z"/>
</svg>
