<?xml version="1.0" encoding="UTF-8" standalone="no"?>
<svg
   viewBox="0 0 3140.2053 1080"
   height="1080"
   width="3140.2053"
   xml:space="preserve"
   id="svg2"
   version="1.1"
   sodipodi:docname="lala (1).svg"
   inkscape:version="1.1 (c68e22c387, 2021-05-23)"
   xmlns:inkscape="http://www.inkscape.org/namespaces/inkscape"
   xmlns:sodipodi="http://sodipodi.sourceforge.net/DTD/sodipodi-0.dtd"
   xmlns="http://www.w3.org/2000/svg"
   xmlns:svg="http://www.w3.org/2000/svg"
   xmlns:rdf="http://www.w3.org/1999/02/22-rdf-syntax-ns#"
   xmlns:cc="http://creativecommons.org/ns#"
   xmlns:dc="http://purl.org/dc/elements/1.1/"><sodipodi:namedview
     id="namedview22"
     pagecolor="#ffffff"
     bordercolor="#666666"
     borderopacity="1.0"
     inkscape:pageshadow="2"
     inkscape:pageopacity="0.0"
     inkscape:pagecheckerboard="0"
     showgrid="false"
     fit-margin-top="0"
     fit-margin-left="0"
     fit-margin-right="0"
     fit-margin-bottom="0"
     inkscape:zoom="0.14888246"
     inkscape:cx="1078.0316"
     inkscape:cy="997.4311"
     inkscape:window-width="1920"
     inkscape:window-height="1017"
     inkscape:window-x="1912"
     inkscape:window-y="-8"
     inkscape:window-maximized="1"
     inkscape:current-layer="svg2" /><metadata
     id="metadata8"><rdf:RDF><cc:Work
         rdf:about=""><dc:format>image/svg+xml</dc:format><dc:type
           rdf:resource="http://purl.org/dc/dcmitype/StillImage" /></cc:Work></rdf:RDF></metadata><defs
     id="defs6" /><g
     transform="matrix(4.3975946,0,0,-4.3975946,0,1080.0011)"
     id="g10"><g
       transform="scale(0.1)"
       id="g12"><path
         id="path14"
         style="fill:#29b143;fill-opacity:1;fill-rule:evenodd;stroke:none"
         d="m 6516.32,1582.39 c 146.02,221.87 358.46,36.04 498.84,142.02 -177.15,-311.03 -306.11,-98.22 -498.84,-142.02 v 0" /><path
         id="path16"
         style="fill:#ed1c24;fill-opacity:1;fill-rule:evenodd;stroke:none"
         d="m 6827.94,1756 c -57.09,147.29 -166.43,188.1 -321.5,135.66 -84.74,-46.73 -100.85,-139.11 -30.38,-157.57 117.29,7.3 219.04,71.84 351.88,21.91 z m -237.4,511.57 c 190.06,-117.49 257.46,-281.73 262.85,-455.75 -105.05,157.8 -374.03,200.43 -425.37,351.17 -30.89,113.32 32.53,172.61 162.52,104.58 z m -251.19,-430.32 c -43.5,-127.24 -1.26,-182.23 122.94,-168.16 l 243.81,58.96 c 86.08,20.5 89.47,-21.88 132.1,-26.46 63.6,-4.71 360.36,486.6 292.52,524.29 -43.81,36.74 -144.14,-79.14 -216.21,-118.71 -28.65,-23.63 -63.2,-15.71 -88.32,26.85 -73.29,102.88 -155.05,195.17 -268.61,276.86 -120.92,91.59 -287.15,38.07 -253.56,-112.22 22.84,-134.02 112.11,-256.73 110.23,-322.91 -5.89,-56.77 -49.94,-92.33 -74.9,-138.5 v 0" /><path
         id="path18"
         style="fill:#ffffff;fill-opacity:1;fill-rule:evenodd;stroke:none"
         d="m 6318.46,2358.02 c 62.49,102.56 172.5,63.97 295.36,-12.72 -76.44,61.8 -260.71,181.36 -295.36,12.72 v 0" /><path
         id="path20"
         style="fill:#27418f;fill-opacity:1;fill-rule:evenodd;stroke:none"
         d="m 1506.73,1750.93 267.33,42.08 c 117.89,23.9 200.26,-70.5 162.63,-203.78 L 1766.63,711.34 c -5.06,-115.449 59.94,-158.899 173.27,-112.629 516.18,299.258 891.58,612.759 1259.89,454.199 l -204.74,664.21 c -20.84,69.24 -81.14,60.9 -95.38,14.01 l -239.48,-532.17 -549.5,-334.159 439.35,870.049 c 35.1,81.38 105.53,162.47 201.74,186.88 l 306.92,44.55 c 118.98,13.8 219.3,-39.79 275.99,-159.65 l 345.3,-862.618 211.63,1134.888 267.59,28.2 c 98.91,5.68 168.97,-43.79 158.14,-149.49 l -178.21,-907.78 c -13.58,-127.842 88.65,-206.56 204.21,-133.049 469.6,335.099 913.69,597.739 1217.8,462.869 l -201.03,668.52 c -30.8,59.25 -63.13,59.77 -97.22,-6.4 l -226.49,-516.08 -542.08,-344.06 402.23,850.25 c 49.15,96.75 115.03,187.07 217,212.03 l 321.37,49.1 c 115.62,15.45 230.08,-48.02 289.6,-179.46 l 334.14,-849 c 30.65,-85.83 26.09,-159.63 -21.03,-224.01 C 5896.6,925.832 5774.99,844.27 5719.58,874.699 5385.57,1218.86 4681.22,872.82 4041.37,646.98 3884.67,620.109 3744.04,620.641 3693.25,774.148 l -23.16,-3.41 c -6.21,-45.578 -22.53,-73.269 -54.53,-98.226 -64.33,-51.211 -228.92,-145.114 -274.68,-117.121 -236.84,345.257 -997.6,28.449 -1673.26,-235.141 -221.12,-32.328 -403.91,41.359 -365.1,284.648 l 204.21,1146.032 v 0" /><path
         id="path22"
         style="fill:#ffffff;fill-opacity:1;fill-rule:evenodd;stroke:none"
         d="m 2680.59,936.609 c 192.25,86.591 406.15,133.071 598.39,-11.75 l -9.28,-66.211 c -163.07,100.293 -369.94,109.692 -589.11,77.961 v 0" /><path
         id="path24"
         style="fill:none;stroke:#ffffff;stroke-width:2.47538;stroke-linecap:butt;stroke-linejoin:miter;stroke-miterlimit:22.9256;stroke-dasharray:none;stroke-opacity:1"
         d="m 2680.59,936.609 c 192.25,86.591 406.15,133.071 598.39,-11.75 l -9.28,-66.211 c -163.07,100.293 -369.94,109.692 -589.11,77.961 z" /><path
         id="path26"
         style="fill:#ffffff;fill-opacity:1;fill-rule:evenodd;stroke:none"
         d="m 5066.71,1248.49 c 192.24,86.59 406.15,133.08 598.4,-11.75 l -9.29,-66.21 c -163.07,100.28 -369.93,109.69 -589.11,77.96 v 0" /><path
         id="path28"
         style="fill:none;stroke:#ffffff;stroke-width:2.47538;stroke-linecap:butt;stroke-linejoin:miter;stroke-miterlimit:22.9256;stroke-dasharray:none;stroke-opacity:1"
         d="m 5066.71,1248.49 c 192.24,86.59 406.15,133.08 598.4,-11.75 l -9.29,-66.21 c -163.07,100.28 -369.93,109.69 -589.11,77.96 z" /><path
         id="path30"
         style="fill:#ffffff;fill-opacity:1;fill-rule:evenodd;stroke:none"
         d="m 5953.5,2360.55 c 55.37,0 100.25,-43.77 100.25,-97.76 0,-54 -44.88,-97.78 -100.25,-97.78 -55.36,0 -100.24,43.78 -100.24,97.78 0,53.99 44.88,97.76 100.24,97.76 v 0" /><path
         id="path32"
         style="fill:none;stroke:#27418f;stroke-width:10.5246;stroke-linecap:butt;stroke-linejoin:miter;stroke-miterlimit:22.9256;stroke-dasharray:none;stroke-opacity:1"
         d="m 5953.5,2360.55 c 55.37,0 100.25,-43.77 100.25,-97.76 0,-54 -44.88,-97.78 -100.25,-97.78 -55.36,0 -100.24,43.78 -100.24,97.78 0,53.99 44.88,97.76 100.24,97.76 z" /><g
         transform="scale(10)"
         id="g34"><text
   id="text38"
   style="font-variant:normal;font-weight:normal;font-size:15.5224px;font-family:ArialMT;-inkscape-font-specification:ArialMT;writing-mode:lr-tb;fill:#27418f;fill-opacity:1;fill-rule:nonzero;stroke:none"
   transform="matrix(1,0,0,-1,589.978,220.723)"><tspan
     id="tspan36"
     y="0"
     x="0">R</tspan></text>
</g><path
         id="path40"
         style="fill:#27418f;fill-opacity:1;fill-rule:evenodd;stroke:none"
         d="M 2456.8,297.59 C 4130.67,-93.8711 6027.26,-174.871 6816.95,1438.25 6169,-282.859 4063.17,-168.121 2456.8,297.59" /><path
         id="path42"
         style="fill:#27418f;fill-opacity:1;fill-rule:evenodd;stroke:none"
         d="M 1079.92,790.309 C 485.961,1067.02 161.984,938.789 0,736.301 c 242.98,108 404.969,290.239 1079.92,54.008" /></g></g></svg>
