<?xml version="1.0" encoding="utf-8"?>
<svg version="1.1" id="Layer_1" xmlns="http://www.w3.org/2000/svg" xmlns:xlink="http://www.w3.org/1999/xlink" x="0px" y="0px"
	 viewBox="0 0 700 200" style="enable-background:new 0 0 700 200;" xml:space="preserve">
<style type="text/css">
	.st0{fill:#00305f;}
</style>
<g>
	<g>
		<g>
			<g>
				<g>
					<g>
						<g>
							<path class="st0" d="M223,34.3c-0.2,4.8-0.6,9.8-0.9,14.6h2.8c1-4,1.9-6.6,3.2-8c1.2-1.6,2.7-2.3,9.5-2.3h3.7v39.7
								c0,6.9-0.8,7.5-8,8.1V89h25.9v-2.6c-7.5-0.6-8.3-1.2-8.3-8.1V38.5h4.5c5.4,0,7.2,0.5,8.7,2.2c1.2,1.4,2.2,4,3.2,8.1l2.7-0.2
								c-0.3-4.3-0.7-9.8-0.8-14.3C269.2,34.3,223,34.3,223,34.3z"/>
							<path class="st0" d="M294.8,81.3c-5.1,7-11.3,8.7-14.4,8.7c-10.7,0-16.7-8.2-16.7-17.7c0-6,2.4-11.3,5.9-14.7
								c3.6-3.7,8.1-6,12.5-6c7.4,0,13.1,6.4,13.1,13c0,1.7-0.5,2.7-2.2,2.9c-1.5,0.2-11.7,1-20.4,1.3c0.2,9.8,5.7,14.3,11.6,14.3
								c3.2,0,6.4-1.2,9.3-3.8L294.8,81.3z M272.9,65c3.8,0,7.5-0.1,11.3-0.2c1.3,0,1.8-0.2,1.9-1.6c0-4.3-2.2-8.5-5.9-8.5
								C276.8,54.7,273.7,58.5,272.9,65z"/>
							<path class="st0" d="M331.1,81.2c-3.7,5.1-9.2,8.8-14.2,8.8c-11,0-17.5-8.5-17.5-17.5c0-6.2,3-11.9,8.4-16
								c5-3.7,10.3-5,13.5-5c3.1,0,5.8,0.9,7.2,2.1c1.2,0.9,1.5,1.7,1.5,2.8c-0.1,2.2-2.1,4.2-3.3,4.2c-0.5,0-1-0.2-1.7-0.9
								c-3.1-2.7-5.8-4-8.4-4c-4.1,0-8.1,3.6-8.1,12.5c0,11.2,7.9,14.8,11.8,14.8c3.5,0,6-0.9,9.3-3.8L331.1,81.2z"/>
							<path class="st0" d="M357.8,89v-2.5c4-0.5,4.5-0.9,4.5-6.8V65.8c0-5.9-2.6-8.4-6.4-8.4c-2.6,0-5,1.3-7.2,3.1v19.8
								c0,5.3,0.5,5.6,4.4,6.1V89h-19.2v-2.5c5.3-0.7,5.7-0.9,5.7-6.4V63c0-5.1-0.4-5.4-4.6-6.2v-2.2c4.4-0.6,9.3-1.7,13.8-3.2v6.3
								c1.7-1.2,3.3-2.4,5.3-3.6c2.4-1.6,4.2-2.4,6.6-2.4c6.6,0,10.7,4.8,10.7,13v15.7c0,5.4,0.5,5.6,5,6.2V89H357.8z"/>
							<path class="st0" d="M417.2,70.1c0,13.3-9.7,19.9-18.8,19.9c-12.4,0-19-9.3-19-18.4c0-13.5,10.6-20,19.2-20
								C409.8,51.5,417.2,60.1,417.2,70.1z M389.8,68.7c0,10.3,3.7,18.2,9.5,18.2c3.9,0,7.5-2.6,7.5-14.6c0-10.9-3.3-17.8-9.3-17.8
								C393.5,54.5,389.8,59.2,389.8,68.7z"/>
							<path class="st0" d="M420.1,89v-2.5c5-0.7,5.5-1.1,5.5-6.5V41.7c0-5.2-0.4-5.5-5.2-6v-2.3c4.6-0.5,10.4-1.7,14.3-2.9V80
								c0,5.6,0.6,6,5.7,6.5V89H420.1z"/>
							<path class="st0" d="M481.1,70.1c0,13.3-9.7,19.9-18.8,19.9c-12.4,0-19-9.3-19-18.4c0-13.5,10.6-20,19.2-20
								C473.7,51.5,481.1,60.1,481.1,70.1z M453.7,68.7c0,10.3,3.7,18.2,9.5,18.2c3.9,0,7.5-2.6,7.5-14.6c0-10.9-3.3-17.8-9.3-17.8
								C457.4,54.5,453.7,59.2,453.7,68.7z M459.4,47.2c1.2-3.6,4-11.8,4.6-13.4c0.8-0.5,7-1.2,8.2-0.9l0.4,0.8l-10.8,14.7
								L459.4,47.2z"/>
							<path class="st0" d="M523.3,53.3c-0.6,1.4-2.2,3.9-3.6,4.7l-4.7-0.3c1.3,1.7,2.2,3.9,2.2,6.7c0,8.8-7.6,13.1-15.3,13.1
								c-1.4,0-2.8-0.2-4.1-0.4c-0.8,0.7-1.6,1.7-1.6,2.7c0,1.4,1.4,3.1,5.2,3.1c2.8,0,5.4-0.2,8-0.2c5.2,0,12.4,1.6,12.4,10
								c0,9.1-10.5,16.8-21.5,16.8c-10.2,0-15.1-5.5-15.1-10.1c0-1.9,0.8-3.3,2.3-4.6c1.9-1.7,4.5-3.3,6.5-4.7
								c-3.2-1.2-5.1-2.8-6.1-4.6c-0.8-1.2-1.2-3.1-1.1-4.1c3.9-1.5,6.5-3.7,8-5.3c-4.6-1.7-7.9-5.7-7.9-11
								c0-9.4,8.5-13.7,15.7-13.7c3.1,0,5.6,0.7,8.5,2.2c4.2-0.2,8.5-0.7,11.7-1.1L523.3,53.3z M496,92.2c-1.5,1.4-2.6,3-2.6,5
								c0,4.2,4.4,8,10.8,8c6.9,0,10.7-3.6,10.7-8.3c0-2.9-1.7-4.8-4.3-5.6c-2.2-0.7-4.1-0.8-7.4-0.8
								C499.2,90.5,497.4,90.9,496,92.2z M496.4,63.9c0,6,2.3,10.6,6.5,10.7c3.4-0.1,5.6-3.4,5.6-9.6c0-5.8-2.2-10.6-6.5-10.6
								C499.1,54.3,496.4,57.6,496.4,63.9z"/>
							<path class="st0" d="M525.8,89v-2.5c5-0.6,5.5-0.9,5.5-6.7V63.1c0-5.3-0.5-5.6-4.8-6.3v-2.3c4.7-0.6,9.7-1.7,13.9-3.1v28.3
								c0,5.6,0.4,6.1,5.6,6.7V89H525.8z M529.9,40.3c0-3,2.5-5.3,5.3-5.3c3,0,5.3,2.3,5.3,5.3c0,2.8-2.3,5.2-5.4,5.2
								C532.4,45.5,529.9,43.1,529.9,40.3z"/>
							<path class="st0" d="M580,81.2c-3.7,5.1-9.2,8.8-14.2,8.8c-11,0-17.5-8.5-17.5-17.5c0-6.2,3-11.9,8.4-16c5-3.7,10.3-5,13.5-5
								c3.1,0,5.8,0.9,7.2,2.1c1.2,0.9,1.5,1.7,1.5,2.8c-0.1,2.2-2.1,4.2-3.3,4.2c-0.5,0-1-0.2-1.7-0.9c-3.1-2.7-5.8-4-8.4-4
								c-4.1,0-8.1,3.6-8.1,12.5c0,11.2,7.9,14.8,11.8,14.8c3.5,0,6-0.9,9.3-3.8L580,81.2z"/>
							<path class="st0" d="M620.5,70.1c0,13.3-9.7,19.9-18.8,19.9c-12.4,0-19-9.3-19-18.4c0-13.5,10.6-20,19.2-20
								C613,51.5,620.5,60.1,620.5,70.1z M593.1,68.7c0,10.3,3.7,18.2,9.5,18.2c3.9,0,7.5-2.6,7.5-14.6c0-10.9-3.3-17.8-9.3-17.8
								C596.8,54.5,593.1,59.2,593.1,68.7z"/>
						</g>
						<g>
							<path class="st0" d="M266.4,161.3c-1.9,0.3-9.1,1.3-15,3.2v-5.1l-5.1,3.1c-2.5,1.5-4.1,1.8-5,1.8c-7,0-16.4-5.9-16.4-18
								c0-11.3,9.9-20.5,22.2-20.5c0.8,0,2.3,0.2,4.2,0.6V116c0-4.8-0.5-5.1-5.9-5.7v-2.4c5-0.6,11.2-2.9,15-4v49.5
								c0,4.6,0.5,4.9,3.8,5.3l2.1,0.2v2.4H266.4z M251.4,133.6c-1.6-2.9-4.2-4.3-7-4.3c-2.6,0-9.2,2.6-9.2,14.9
								c0,10.1,6,14.3,10.4,14.3c2,0,3.9-0.7,5.8-1.9V133.6z"/>
							<path class="st0" d="M300.2,155.7c-5.1,7-11.3,8.7-14.4,8.7c-10.7,0-16.7-8.2-16.7-17.7c0-6.1,2.4-11.3,5.9-14.7
								c3.6-3.7,8.1-6,12.5-6c7.4,0,13.1,6.4,13.1,13c0,1.7-0.5,2.6-2.2,2.9c-1.5,0.2-11.7,1-20.4,1.3c0.2,9.8,5.7,14.3,11.6,14.3
								c3.2,0,6.4-1.2,9.3-3.8L300.2,155.7z M278.4,139.5c3.8,0,7.5-0.1,11.3-0.2c1.3,0,1.8-0.2,1.9-1.6c0-4.3-2.2-8.4-5.9-8.4
								C282.3,129.2,279.1,133,278.4,139.5z"/>
							<path class="st0" d="M364.1,163.5v-2.7c6.5-0.7,6.8-1.2,6.8-9.3l-0.3-32.6h-0.3l-19,43.9h-2.1l-17.5-43h-0.3l-1.1,22.4
								c-0.3,6.9-0.3,10.6-0.1,13.5c0.2,3.8,2,4.5,7.5,5v2.7H318v-2.7c4.7-0.4,6.3-1.7,6.8-4.8c0.5-2.7,1.1-6.8,1.7-15.5l1.2-16.7
								c0.7-9.9,0.2-10.8-7.1-11.4v-2.7h15.9l17,38.1l17.3-38.1h15.7v2.7c-6.9,0.7-7.3,1.1-7.1,8.6l0.8,30.6c0.2,8,0.5,8.6,7.3,9.3
								v2.7H364.1z"/>
							<path class="st0" d="M426.9,144.6c0,13.3-9.7,19.9-18.8,19.9c-12.4,0-19-9.3-19-18.4c0-13.5,10.6-20.1,19.2-20.1
								C419.4,126,426.9,134.5,426.9,144.6z M399.5,143.2c0,10.3,3.7,18.2,9.5,18.2c3.9,0,7.5-2.7,7.5-14.6
								c0-10.9-3.3-17.8-9.3-17.8C403.2,129,399.5,133.7,399.5,143.2z"/>
							<path class="st0" d="M453.4,163.5V161c4-0.5,4.5-0.9,4.5-6.8v-13.9c0-5.9-2.6-8.4-6.4-8.4c-2.6,0-5,1.3-7.2,3.1v19.8
								c0,5.3,0.5,5.6,4.4,6.1v2.5h-19.2V161c5.3-0.7,5.7-0.9,5.7-6.4v-17.2c0-5.1-0.4-5.4-4.6-6.2V129c4.4-0.6,9.3-1.7,13.8-3.2
								v6.3c1.7-1.2,3.3-2.4,5.3-3.6c2.4-1.6,4.2-2.4,6.6-2.4c6.6,0,10.7,4.8,10.7,13v15.7c0,5.4,0.5,5.6,5.1,6.2v2.5H453.4z"/>
							<path class="st0" d="M490.4,163.5c-1.4,0.7-2.7,1-3.4,1c-6,0-9.4-3.1-9.4-10.3v-23.4h-5.4l-0.4-1l2.3-2.7h3.5V121l8-6.1
								l1.1,0.4V127h8.6c0.9,0.8,0.7,3.1-0.5,3.7h-8.1v20.7c0,6.5,3,7.5,4.8,7.5c1.7,0,3.1-0.5,4.5-1.1l0.8,2.6L490.4,163.5z"/>
							<path class="st0" d="M529.5,155.7c-5.1,7-11.3,8.7-14.4,8.7c-10.7,0-16.7-8.2-16.7-17.7c0-6.1,2.4-11.3,5.9-14.7
								c3.6-3.7,8.1-6,12.5-6c7.4,0,13.1,6.4,13.1,13c0,1.7-0.5,2.6-2.2,2.9c-1.5,0.2-11.7,1-20.4,1.3c0.2,9.8,5.7,14.3,11.6,14.3
								c3.2,0,6.4-1.2,9.3-3.8L529.5,155.7z M507.6,139.5c3.8,0,7.5-0.1,11.3-0.2c1.3,0,1.8-0.2,1.9-1.6c0-4.3-2.2-8.4-5.9-8.4
								C511.5,129.2,508.4,133,507.6,139.5z"/>
							<path class="st0" d="M547.2,134.8c2.8-4.9,6.2-8.8,9.6-8.8c3.2,0,5.3,2.2,5.3,4.8c0,2.4-1.6,4.6-3.6,5.3
								c-1.1,0.4-1.9,0.2-2.4-0.3c-1.4-1.2-2.4-1.7-3.7-1.7c-1.8,0-3.8,1.6-5.4,5.4v15.3c0,5.2,0.4,5.6,6.8,6.1v2.5h-21.4V161
								c4.7-0.5,5.5-0.9,5.5-6.1V137c0-4.6-0.5-5-4.7-5.8V129c4.6-0.7,9.1-1.7,13.8-3.2v8.9h0.2V134.8z"/>
							<path class="st0" d="M579.3,134.8c2.8-4.9,6.2-8.8,9.6-8.8c3.1,0,5.3,2.2,5.3,4.8c0,2.4-1.6,4.6-3.6,5.3
								c-1.1,0.4-1.9,0.2-2.4-0.3c-1.4-1.2-2.4-1.7-3.7-1.7c-1.8,0-3.8,1.6-5.4,5.4v15.3c0,5.2,0.4,5.6,6.8,6.1v2.5h-21.4V161
								c4.7-0.5,5.5-0.9,5.5-6.1V137c0-4.6-0.5-5-4.7-5.8V129c4.6-0.7,9.1-1.7,13.8-3.2v8.9h0.2V134.8z"/>
							<path class="st0" d="M625.1,155.7c-5.1,7-11.3,8.7-14.4,8.7c-10.7,0-16.7-8.2-16.7-17.7c0-6.1,2.4-11.3,5.9-14.7
								c3.6-3.7,8.1-6,12.5-6c7.4,0,13.1,6.4,13.1,13c0,1.7-0.5,2.6-2.2,2.9c-1.5,0.2-11.7,1-20.4,1.3c0.3,9.8,5.7,14.3,11.6,14.3
								c3.2,0,6.4-1.2,9.3-3.8L625.1,155.7z M603.2,139.5c3.8,0,7.5-0.1,11.3-0.2c1.3,0,1.8-0.2,1.9-1.6c0-4.3-2.2-8.4-5.9-8.4
								C607.1,129.2,603.9,133,603.2,139.5z"/>
							<path class="st0" d="M665.4,129.4c-4.1,0.7-4.9,1.5-7,6c-2.1,4.3-4.7,11.3-9.9,23.5c-5.6,13.3-7.3,18.3-8.6,23
								c-0.6,1.7-1.7,2.2-2.9,2.2c-2.3,0-5.5-2.2-5.5-4.8c0-1.3,0.7-2.1,2.2-3.2c3-1.7,4.8-3.4,6.5-6.5c1.1-1.9,1.6-3.1,1.9-4.2
								c0.4-1.2,0.2-2.4-0.2-3.8c-3.9-11.1-8.2-22.2-10.1-26.7c-1.6-3.9-2.5-4.9-6.6-5.6V127h19.2v2.4c-3.7,0.7-4.2,1.3-3.3,4.1
								l6.7,19.2c2.1-5.1,5.1-13.8,6.7-18.7c1-2.9,0.2-3.9-4.1-4.6V127h14.9L665.4,129.4L665.4,129.4z"/>
						</g>
					</g>
				</g>
			</g>
		</g>
		<path class="st0" d="M116.2,15.9c-45.1,0-81.6,36.5-81.6,81.6c0,41.6,31.2,76,71.4,81V167c-13.5-2-26.9-6.6-35.8-18.9h46h46
			c-8.9,12.3-22.4,16.8-35.8,18.9v11.6c40.3-5,71.4-39.4,71.4-81C197.8,52.5,161.3,15.9,116.2,15.9z M71.2,74.9
			c3.6-3.7,30.9-30.4,35.5-35c11.3-11.3,9.1-20.5,9.1-20.5c13.1,9.9,8.3,20.7,1.2,27.5C111.3,52.5,90.9,73,81.5,82
			c-14.9,14.3-13.1,26.2-10.3,36.3C60.1,107.2,55.1,91.6,71.2,74.9z M90.8,80.9c4-3.9,25.4-25,32.7-32.1
			c15.2-14.8,14.3-20.7,15-23.8c10.7,11,4.1,22.1-1.7,27.9c-5,5.1-28.8,29.1-38.5,38c-2.5,2.2-18.5,17-17.5,30.6
			C71.9,110.1,74.3,95.8,90.8,80.9z M100,98.1c4-3.8,29.2-28.7,34-33.4c15.6-15.2,14.9-20,14.9-20c6.8,16.1-2.5,24.8-8.1,30.3
			c-6.1,6-21.4,21.1-30.3,29.8c-22.2,21.8-14.2,39.5-14.2,39.5C82.3,133.9,85.4,112.3,100,98.1z M159.2,109.2
			c-5.4,5.3-3.3,3.2-12.1,11.8c-14.3,14-14.4,23.3-14.4,23.3c-8-8.8-3.1-23.4,5.5-31.8c3.6-3.5,10.2-9.8,14.9-14.3
			c9.7-9.2,12.7-11.9,14.1-15.4C171,98.2,162.9,105.3,159.2,109.2z M159.8,82.5c-5.5,5.6-16.5,16.1-25.3,24.8
			c-20.8,19-21.1,31.3-20,37c-15.3-18-3.2-31.5,4.6-39.1c3.6-3.5,25.6-25.2,30.7-30.1c17.8-17,17.8-22.1,17.8-22.1
			C174.4,69.1,165.3,77,159.8,82.5z"/>
	</g>
</g>
</svg>
