<svg xmlns="http://www.w3.org/2000/svg" viewBox="34 14 165 170">
  <path fill="#ffffff" d="M116.2,15.9c-45.1,0-81.6,36.5-81.6,81.6c0,41.6,31.2,76,71.4,81V167c-13.5-2-26.9-6.6-35.8-18.9h46h46
    c-8.9,12.3-22.4,16.8-35.8,18.9v11.6c40.3-5,71.4-39.4,71.4-81C197.8,52.5,161.3,15.9,116.2,15.9z M71.2,74.9
    c3.6-3.7,30.9-30.4,35.5-35c11.3-11.3,9.1-20.5,9.1-20.5c13.1,9.9,8.3,20.7,1.2,27.5C111.3,52.5,90.9,73,81.5,82
    c-14.9,14.3-13.1,26.2-10.3,36.3C60.1,107.2,55.1,91.6,71.2,74.9z M90.8,80.9c4-3.9,25.4-25,32.7-32.1
    c15.2-14.8,14.3-20.7,15-23.8c10.7,11,4.1,22.1-1.7,27.9c-5,5.1-28.8,29.1-38.5,38c-2.5,2.2-18.5,17-17.5,30.6
    C71.9,110.1,74.3,95.8,90.8,80.9z M100,98.1c4-3.8,29.2-28.7,34-33.4c15.6-15.2,14.9-20,14.9-20c6.8,16.1-2.5,24.8-8.1,30.3
    c-6.1,6-21.4,21.1-30.3,29.8c-22.2,21.8-14.2,39.5-14.2,39.5C82.3,133.9,85.4,112.3,100,98.1z M159.2,109.2
    c-5.4,5.3-3.3,3.2-12.1,11.8c-14.3,14-14.4,23.3-14.4,23.3c-8-8.8-3.1-23.4,5.5-31.8c3.6-3.5,10.2-9.8,14.9-14.3
    c9.7-9.2,12.7-11.9,14.1-15.4C171,98.2,162.9,105.3,159.2,109.2z M159.8,82.5c-5.5,5.6-16.5,16.1-25.3,24.8
    c-20.8,19-21.1,31.3-20,37c-15.3-18-3.2-31.5,4.6-39.1c3.6-3.5,25.6-25.2,30.7-30.1c17.8-17,17.8-22.1,17.8-22.1
    C174.4,69.1,165.3,77,159.8,82.5z"/>
</svg>
